inDegrees=no
num_controls=7
num_derivatives=13
num_iterations=109
num_multipliers=7
num_parameters=0
num_slacks=7
num_states=26
objective=0.445721
objective_accelerations=0.056432
objective_balance=0.003395
objective_effort=0.022645
objective_height=0.357677
objective_ligament=0.005572
solver_duration=1505.516965
status=Solve_Succeeded
success=true
DataType=double
version=3
OpenSimVersion=4.5
endheader
time	/jointset/ground_pelvis/pelvis_tilt/value	/jointset/ground_pelvis/pelvis_tx/value	/jointset/ground_pelvis/pelvis_ty/value	/jointset/hip_l/hip_flexion_l/value	/jointset/hip_l/hip_adduction_l/value	/jointset/hip_l/hip_rotation_l/value	/jointset/back/lumbar_extension/value	/jointset/patellofemoral_l/patellar_flexion_l/value	/jointset/knee_l/knee_flexion_l/value	/jointset/knee_l/knee_adduction_l/value	/jointset/knee_l/knee_rotation_l/value	/jointset/ankle_l/ankle_angle_l/value	/jointset/subtalar_l/subtalar_angle_l/value	/jointset/ground_pelvis/pelvis_tilt/speed	/jointset/ground_pelvis/pelvis_tx/speed	/jointset/ground_pelvis/pelvis_ty/speed	/jointset/hip_l/hip_flexion_l/speed	/jointset/hip_l/hip_adduction_l/speed	/jointset/hip_l/hip_rotation_l/speed	/jointset/back/lumbar_extension/speed	/jointset/patellofemoral_l/patellar_flexion_l/speed	/jointset/knee_l/knee_flexion_l/speed	/jointset/knee_l/knee_adduction_l/speed	/jointset/knee_l/knee_rotation_l/speed	/jointset/ankle_l/ankle_angle_l/speed	/jointset/subtalar_l/subtalar_angle_l/speed	/forceset/tau_hip_flexion_l	/forceset/tau_hip_adduction_l	/forceset/tau_hip_rotation_l	/forceset/tau_knee_flexion_l	/forceset/tau_ankle_angle_l	/forceset/tau_subtalar_angle_l	/forceset/tau_lumbar_extension	lambda_cid13_p0	lambda_cid13_p1	lambda_cid13_p2	lambda_cid13_p3	lambda_cid13_p4	lambda_cid13_p5	lambda_cid14_p0	/jointset/ground_pelvis/pelvis_tilt/accel	/jointset/ground_pelvis/pelvis_tx/accel	/jointset/ground_pelvis/pelvis_ty/accel	/jointset/hip_l/hip_flexion_l/accel	/jointset/hip_l/hip_adduction_l/accel	/jointset/hip_l/hip_rotation_l/accel	/jointset/back/lumbar_extension/accel	/jointset/patellofemoral_l/patellar_flexion_l/accel	/jointset/knee_l/knee_flexion_l/accel	/jointset/knee_l/knee_adduction_l/accel	/jointset/knee_l/knee_rotation_l/accel	/jointset/ankle_l/ankle_angle_l/accel	/jointset/subtalar_l/subtalar_angle_l/accel	gamma_cid13_p0	gamma_cid13_p1	gamma_cid13_p2	gamma_cid13_p3	gamma_cid13_p4	gamma_cid13_p5	gamma_cid14_p0
0	-0.03954736272461017	0.06892350178966417	0.8959517300666194	0.1955287580552426	-0.3219977017380377	-0.4835770299885288	-0.1379045077516729	0.07015288079084861	0.07015288079084844	-0.1745327043237658	-0.1180340019548192	-0.06701059314715049	0.003831376442853968	0	0	0	0	0	0	0	0	0	0	0	0	0	0.1096466322231719	-0.10011864474071	-0.0314495523240502	-0.2428839770453659	0.2076550730251826	-0.01917780661548246	-0.05334856881435457	30.86919560511044	-0.0709516799022909	3.09629116363113	-4.554508484439706	-515.6641158140974	-77.98702715645084	-39.9201187940881	-4.419647591833176	-1.748140715928177	-0.9637536786686192	12.34911118584266	-2.123456392575719	3.325540816810223	-2.818582840534054	10.16781105026055	10.167811050262	0.6412398679400614	-0.8207066820766585	2.421820024093738	-1.011802641122265	-2.7145426444185e-08	1.205616837565315e-07	9.837107675015686e-08	1.720593109438506e-08	-2.480790070635086e-08	-3.031033648633186e-08	-3.324021100135087e-09
0.01	-0.03975815298929054	0.06883728486490084	0.895904924862331	0.196125848583463	-0.322102437491869	-0.4834099198732512	-0.1380512047596758	0.07064693578769798	0.0706469357876978	-0.1745044586959417	-0.118068845214357	-0.06689427799724371	0.003779721984817339	-0.04194733024404066	-0.01716564024639011	-0.009332157044083682	0.1188687707877207	-0.02086316132687011	0.03329523348390311	-0.02908355360555966	0.09838300153895084	0.09838300153894039	0.005594877890040656	-0.006920874015250047	0.02316347579851451	-0.0102939916021243	0.104893528299683	-0.1005971687057522	-0.03049475081821509	-0.2367158691766587	0.1982389900618982	-0.0144708072289721	-0.04935431898128501	27.99848142968792	-1.598540816925005	3.323816402699418	-3.494165464944472	-516.4384603646629	-81.18737257342103	-39.93013369350125	-4.050677601747626	-1.68911053189624	-0.9136191068261906	11.57334896087455	-2.055176261649452	3.312486622521215	-2.914864421244049	9.609345695901961	9.609345695899538	0.5105063353441641	-0.6206031399916224	2.248679333769567	-1.032692641211571	-6.853941956111929e-08	1.493051684524984e-07	1.889579719049981e-07	4.970639132872823e-08	-2.379648516855524e-07	-8.517951976540491e-08	-1.182050171067124e-08
0.02	-0.0403820969286249	0.06858174456709321	0.8957656636096919	0.1978951446066854	-0.3224132909107502	-0.4829136630214657	-0.1384810618638707	0.07211198099797346	0.07211198099797361	-0.174421885371999	-0.1181714622897983	-0.0665493144941439	0.003626228566468648	-0.0826307349303981	-0.03386467460886515	-0.01849120967010588	0.2344410990009516	-0.04122353301001316	0.06582934730143997	-0.05663201923820029	0.194198042685486	0.1941980426854595	0.01086553921240218	-0.01355476318019822	0.0457296706385989	-0.02036779206241241	0.1001404243761781	-0.101075692670793	-0.02953994931237249	-0.2305477613079607	0.1888229070986115	-0.009763807842461463	-0.04536006914822705	25.19053858155008	-3.1385056192595	3.554897856740587	-2.59595050016179	-516.2986187402106	-84.22608761365649	-39.95962928049057	-4.166862480296515	-1.654819539145171	-0.9291327950563273	11.6898226709447	-2.022898463830359	3.173316883536969	-2.51156524595023	9.654218971777421	9.654218971777746	0.5763965544041194	-0.7633097120162906	2.30236383240769	-0.9677644127550977	-1.099334126780536e-07	1.780486531484653e-07	2.795448670598394e-07	8.22068515630714e-08	-4.511218026647538e-07	-1.40048703044478e-07	-2.031698232120739e-08
0.03	-0.04140740188742076	0.06816174942693159	0.8955354042164879	0.2008048096481576	-0.3229248496465781	-0.4820962014698466	-0.1391781795952078	0.0745227235140024	0.07452272351400337	-0.1742875234546681	-0.1183393917570823	-0.0659812786630869	0.003373715751445046	-0.1222421207629428	-0.05003366874608852	-0.02755025345657921	0.3469482195307714	-0.06096635630558904	0.09752502317011691	-0.08254500506310751	0.2874986199873368	0.287498619987343	0.01599582017305404	-0.01998029232442247	0.0677951180386084	-0.03004910555822312	0.09601357404376297	-0.09814732163446072	-0.02889404662340222	-0.2269661961441174	0.1849331109651803	-0.009253004821058709	-0.04186150529376741	23.99268467702591	-3.209480552601831	3.633454976608517	-2.449162116434818	-516.2839028625976	-83.78291108149213	-40.00742430793086	-3.830069202209721	-1.582820076761859	-0.8928189289301608	10.94958293997959	-1.931745038563081	3.146965586175638	-2.594186955780797	9.100205127211016	9.100205127215045	0.4797526413649523	-0.5745148788360837	2.146276490238856	-0.9555244858041358	-1.404882170759506e-07	1.920910546348746e-07	3.343998037974953e-07	1.107148319457779e-07	-6.225067580194401e-07	-1.763978536222367e-07	-2.515178485050168e-08
0.04	-0.04282317921803994	0.06758308820024753	0.8952148486337216	0.2048232311341208	-0.3236301907705896	-0.480965928630011	-0.1401270315257993	0.07785291740661159	0.07785291740661113	-0.1741021769728284	-0.1185700445884539	-0.06519506009874151	0.003026947867901307	-0.1607252092945252	-0.06559789191335445	-0.03655044758259848	0.4561923878997526	-0.07998001064684011	0.128391604944496	-0.106978859088804	0.3780883180020706	0.3780883180020805	0.02106245211247426	-0.02609943599707052	0.08936621729626791	-0.03921880576643742	0.09188672371132092	-0.09521895059812489	-0.02824814393442579	-0.2233846309802997	0.1810433148317389	-0.008742201799657744	-0.03836294143932081	22.85215241085331	-3.290934874861569	3.714189492239091	-2.454120709939117	-515.4381857774002	-83.18780825002976	-40.07200096694658	-3.941203020104038	-1.533865345153698	-0.9173628629655158	11.03723223877696	-1.877064672965417	3.007498064677401	-2.215738886108069	9.112043114354012	9.112043114348561	0.5636667501577565	-0.7020326177010551	2.203494203937673	-0.865441755235844	-1.708195330466509e-07	2.058303410035611e-07	3.885179991244876e-07	1.391404931562858e-07	-7.930304351138271e-07	-2.123651478556383e-07	-2.991108886265697e-08
0.05	-0.04461858561877757	0.06685160946455822	0.8948043107193314	0.2099192033106649	-0.3245220275375706	-0.4795313241717611	-0.1413122867277889	0.0820765377537329	0.08207653775373364	-0.173866251889701	-0.118860963661693	-0.06419540578088598	0.002591129819244714	-0.1981396010812969	-0.08061345029699576	-0.04556441606875185	0.5624687091997574	-0.09826174241223271	0.1584024599861863	-0.1298454147920181	0.4662030725608234	0.466203072560803	0.02610632190848872	-0.03203228273006016	0.1104688207029053	-0.04786398574624128	0.08659921213525359	-0.09083831616542745	-0.02733121778973123	-0.2184221629996513	0.1750971570873723	-0.00847192285877231	-0.03410697108825	21.03428107533053	-3.191906725241174	3.814779449610103	-1.776221362581253	-514.6157294493911	-82.17025080241126	-40.15146268289707	-3.609098821534523	-1.47271228808332	-0.8946659414908615	10.34280642601021	-1.784946561173919	2.978802622658246	-2.288098934820572	8.596295818112818	8.596295818111795	0.4723897901266867	-0.5310461137695813	2.049264426774585	-0.8520089729060574	-1.889883563975249e-07	2.132479752855075e-07	4.251551068145156e-07	1.563087706610229e-07	-8.951434991100951e-07	-2.355309698713435e-07	-3.280282693141919e-08
0.06	-0.04678164425009874	0.06597251290440961	0.8943033827000693	0.2160619335702867	-0.3255929254487749	-0.4778004264833451	-0.1427194044912898	0.08716832648473716	0.08716832648473789	-0.1735803595694491	-0.1192096382847962	-0.06298760122541447	0.002071269400079401	-0.2342556554108933	-0.09512145680520782	-0.05462846855694751	0.665544004515681	-0.115792239491535	0.1876502509776123	-0.1513513713909286	0.5517219947786522	0.5517219947786336	0.03105589953663813	-0.03765054596991669	0.1309962648194549	-0.05602727986818155	0.08131170055917408	-0.08645768173272889	-0.02641429164504148	-0.2134596950190084	0.1691509993430038	-0.008201643917886572	-0.02985100073718804	19.26818437040939	-3.100559074074464	3.915012724082726	-1.235867703031843	-513.0446793719722	-81.01216560051471	-40.24371533212953	-3.681535528668968	-1.432354970067861	-0.9273796633739767	10.39702704196073	-1.726817735747365	2.854885254624553	-1.943619065247367	8.592876646169209	8.592876646170202	0.5448083165847276	-0.6391159190744387	2.08846234592011	-0.7690645836631435	-2.066450747959852e-07	2.20399434742749e-07	4.61056168709303e-07	1.73003053062359e-07	-9.943761162390737e-07	-2.581577825305141e-07	-3.561593064467012e-08
0.07000000000000001	-0.04930030552720819	0.06495089686102969	0.8937113229869375	0.2232209691307527	-0.3268353690563113	-0.475781130265424	-0.1443340305054784	0.09310322891395964	0.09310322891395996	-0.1732452335831175	-0.1196135091633893	-0.06157704739822452	0.001472371586020432	-0.2692721866222904	-0.1091108674133987	-0.06380405234655027	0.765734878133826	-0.132562966794962	0.2160799226302551	-0.1713551340363445	0.6348112608355095	0.6348112608355082	0.03594507429409129	-0.04306787620380076	0.1510141805503971	-0.06366642895229223	0.0760811506251349	-0.0829643995672532	-0.02556894768567276	-0.2095953671600068	0.1640724661665549	-0.007383020640311891	-0.02567772131695288	17.78437158918362	-3.262343715475581	4.01626343167215	-0.8788273492885968	-511.6982357374748	-80.39252307366414	-40.3463845115778	-3.381061591146088	-1.368566634665358	-0.9159345563662994	9.750855272135112	-1.632238902578801	2.817584422351999	-1.995950252582941	8.099874208195649	8.099874208197615	0.4574278714688079	-0.4846170624152508	1.943401557729159	-0.7485477422670606	-2.144744154790136e-07	2.08241526879305e-07	4.782386372017115e-07	1.805793011609337e-07	-1.043296779423546e-06	-2.709664343118324e-07	-3.773653910821052e-08
0.08	-0.05216300205118681	0.06379212020587365	0.893026850071987	0.2313660609774769	-0.3282415276718696	-0.473481422070622	-0.1461421332238006	0.09985560852830051	0.09985560852830007	-0.1728619246859798	-0.1200698684416961	-0.05996932533951552	0.0007996407468239522	-0.3030627047845225	-0.1225535791604291	-0.07311110892066723	0.86275526176772	-0.1485352410959267	0.2437326463536124	-0.1900467122175269	0.7152174318024337	0.715217431802444	0.04069248169727131	-0.04814822591247957	0.1704299111232549	-0.07079388489568461	0.07085060069107933	-0.07947111740177766	-0.02472360372630342	-0.2057310393010125	0.1589939329901037	-0.006564397362738675	-0.02150444189672938	16.34609744101187	-3.43050954478566	4.116713126234575	-0.643002770496508	-509.6900520155307	-79.64797506329388	-40.45693529632015	-3.436332918835926	-1.323015197835793	-0.9536742202768163	9.76292904511055	-1.567127135254901	2.699495668767497	-1.681182172400671	8.056257628182601	8.056257628182406	0.5164548457300856	-0.5717198140333929	1.968025314303239	-0.666725955519498	-2.216697317933044e-07	1.948378533822684e-07	4.942134545068697e-07	1.875672889819108e-07	-1.08897151009547e-06	-2.831416563590956e-07	-3.981247045886637e-08
0.09	-0.05535832306609215	0.06250163961402337	0.8922484399017223	0.2404670967173775	-0.3298035074412862	-0.4709093742068258	-0.1481297976227509	0.1073997738325615	0.107399773832561	-0.1724316829408099	-0.1205760692238756	-0.05817003807498497	5.831922909764231e-05	-0.3357991892689128	-0.1354483360684228	-0.08260159218713141	0.9569286899556352	-0.1637271276313047	0.2705478980464015	-0.2072725966946214	0.7931721554143973	0.7931721554144191	0.04532074170817543	-0.05303830193853806	0.189327821707753	-0.07738497219191162	0.06543957161697103	-0.07581632336212957	-0.02388989789871959	-0.2023931819966662	0.1544288195268778	-0.00586465357321801	-0.01722821074675222	15.0491090954848	-3.567194846247457	4.206901526375497	-0.428517502801722	-507.9489034774622	-78.79883606669362	-40.57266873602291	-3.161969422185679	-1.258537839745865	-0.951553970540987	9.16604303216031	-1.4752458583219	2.653116324447538	-1.711255953645147	7.59856667845624	7.598566678458164	0.4308306572268102	-0.4395381849380616	1.835708290573924	-0.6425682068285151	-2.211137663009282e-07	1.596313378037422e-07	4.97522713130212e-07	1.850446658589124e-07	-1.093245801670536e-06	-2.900249810432364e-07	-4.245958789610013e-08
